HIERARCHY
ROOT Hips
{
  OFFSET 10.275 27.293 -251.106
  CHANNELS 6 Xposition Yposition Zposition Zrotation Xrotation Yrotation
  JOINT LeftUpLeg
  {
    OFFSET 6.182 -6.262 1.240
    CHANNELS 6 Xposition Yposition Zposition Zrotation Xrotation Yrotation
    JOINT LeftLeg
    {
      OFFSET 0.000 -50.039 0.000
      CHANNELS 6 Xposition Yposition Zposition Zrotation Xrotation Yrotation
      JOINT LeftFoot
      {
        OFFSET -0.000 -41.504 -0.000
        CHANNELS 6 Xposition Yposition Zposition Zrotation Xrotation Yrotation
        End Site
        {
          OFFSET 0.000 -7.136 4.120
        }
      }
    }
  }
  JOINT RightUpLeg
  {
    OFFSET -6.012 -6.346 1.514
    CHANNELS 6 Xposition Yposition Zposition Zrotation Xrotation Yrotation
    JOINT RightLeg
    {
      OFFSET -0.000 -50.175 0.000
      CHANNELS 6 Xposition Yposition Zposition Zrotation Xrotation Yrotation
      JOINT RightFoot
      {
        OFFSET -0.000 -41.222 -0.000
        CHANNELS 6 Xposition Yposition Zposition Zrotation Xrotation Yrotation
        End Site
        {
          OFFSET 0.000 -7.533 4.349
        }
      }
    }
  }
  JOINT Spine
  {
    OFFSET 0.000 6.146 -6.146
    CHANNELS 6 Xposition Yposition Zposition Zrotation Xrotation Yrotation
    JOINT LeftShoulder
    {
      OFFSET -0.000 33.791 0.000
      CHANNELS 6 Xposition Yposition Zposition Zrotation Xrotation Yrotation
      JOINT LeftArm
      {
        OFFSET 14.861 0.000 -0.000
        CHANNELS 6 Xposition Yposition Zposition Zrotation Xrotation Yrotation
        JOINT LeftForeArm
        {
          OFFSET 21.151 0.000 0.000
          CHANNELS 6 Xposition Yposition Zposition Zrotation Xrotation Yrotation
          JOINT LeftHand
          {
            OFFSET 24.717 0.000 -0.000
            CHANNELS 6 Xposition Yposition Zposition Zrotation Xrotation Yrotation
            JOINT LeftHandThumb1
            {
            OFFSET 4.970 -0.620 3.390
            CHANNELS 6 Xposition Yposition Zposition Zrotation Xrotation Yrotation
              JOINT LeftHandThumb2
              {
              OFFSET 2.150 -0.000 0.000
              CHANNELS 6 Xposition Yposition Zposition Zrotation Xrotation Yrotation
                JOINT LeftHandThumb3
                {
                OFFSET 2.200 -0.000 0.000
                CHANNELS 6 Xposition Yposition Zposition Zrotation Xrotation Yrotation
                  JOINT LeftHandThumb4
                  {
                  OFFSET 1.700 -0.000 0.000
                  CHANNELS 6 Xposition Yposition Zposition Zrotation Xrotation Yrotation
                  }
                }
              }
            }
            JOINT LeftHandIndex1
            {
            OFFSET 8.730 0.680 2.070
            CHANNELS 6 Xposition Yposition Zposition Zrotation Xrotation Yrotation
              JOINT LeftHandIndex2
              {
              OFFSET 2.670 -0.000 0.000
              CHANNELS 6 Xposition Yposition Zposition Zrotation Xrotation Yrotation
                JOINT LeftHandIndex3
                {
                OFFSET 2.130 -0.000 0.000
                CHANNELS 6 Xposition Yposition Zposition Zrotation Xrotation Yrotation
                  JOINT LeftHandIndex4
                  {
                  OFFSET 1.800 -0.000 0.000
                  CHANNELS 6 Xposition Yposition Zposition Zrotation Xrotation Yrotation
                  }
                }
              }
            }
            JOINT LeftHandMiddle1
            {
            OFFSET 9.220 0.670 0.550
            CHANNELS 6 Xposition Yposition Zposition Zrotation Xrotation Yrotation
              JOINT LeftHandMiddle2
              {
              OFFSET 2.660 -0.000 0.000
              CHANNELS 6 Xposition Yposition Zposition Zrotation Xrotation Yrotation
                JOINT LeftHandMiddle3
                {
                OFFSET 2.280 -0.000 0.000
                CHANNELS 6 Xposition Yposition Zposition Zrotation Xrotation Yrotation
                  JOINT LeftHandMiddle4
                  {
                  OFFSET 1.500 -0.000 0.000
                  CHANNELS 6 Xposition Yposition Zposition Zrotation Xrotation Yrotation
                  }
                }
              }
            }
            JOINT LeftHandRing1
            {
            OFFSET 9.250 0.670 -1.130
            CHANNELS 6 Xposition Yposition Zposition Zrotation Xrotation Yrotation
              JOINT LeftHandRing2
              {
              OFFSET 2.470 -0.000 0.000
              CHANNELS 6 Xposition Yposition Zposition Zrotation Xrotation Yrotation
                JOINT LeftHandRing3
                {
                OFFSET 2.210 -0.000 0.000
                CHANNELS 6 Xposition Yposition Zposition Zrotation Xrotation Yrotation
                  JOINT LeftHandRing4
                  {
                  OFFSET 1.800 -0.000 0.000
                  CHANNELS 6 Xposition Yposition Zposition Zrotation Xrotation Yrotation
                  }
                }
              }
            }
            JOINT LeftHandPinky1
            {
            OFFSET 9.350 0.660 -2.720
            CHANNELS 6 Xposition Yposition Zposition Zrotation Xrotation Yrotation
              JOINT LeftHandPinky2
              {
              OFFSET 1.630 -0.000 0.000
              CHANNELS 6 Xposition Yposition Zposition Zrotation Xrotation Yrotation
                JOINT LeftHandPinky3
                {
                OFFSET 1.710 -0.000 0.000
                CHANNELS 6 Xposition Yposition Zposition Zrotation Xrotation Yrotation
                  JOINT LeftHandPinky4
                  {
                  OFFSET 1.800 -0.000 0.000
                  CHANNELS 6 Xposition Yposition Zposition Zrotation Xrotation Yrotation
                  }
                }
              }
            }
          }
        }
      }
    }
    JOINT RightShoulder
    {
      OFFSET -0.000 33.791 0.000
      CHANNELS 6 Xposition Yposition Zposition Zrotation Xrotation Yrotation
      JOINT RightArm
      {
        OFFSET -16.400 0.000 -0.000
        CHANNELS 6 Xposition Yposition Zposition Zrotation Xrotation Yrotation
        JOINT RightForeArm
        {
          OFFSET -23.492 0.000 0.000
          CHANNELS 6 Xposition Yposition Zposition Zrotation Xrotation Yrotation
          JOINT RightHand
          {
            OFFSET -24.247 0.000 -0.000
            CHANNELS 6 Xposition Yposition Zposition Zrotation Xrotation Yrotation
            JOINT RightHandThumb1
            {
            OFFSET -4.970 -0.620 3.390
            CHANNELS 6 Xposition Yposition Zposition Zrotation Xrotation Yrotation
              JOINT RightHandThumb2
              {
              OFFSET -2.150 0.000 0.000
              CHANNELS 6 Xposition Yposition Zposition Zrotation Xrotation Yrotation
                JOINT RightHandThumb3
                {
                OFFSET -2.200 0.000 0.000
                CHANNELS 6 Xposition Yposition Zposition Zrotation Xrotation Yrotation
                  JOINT RightHandThumb4
                  {
                  OFFSET -1.700 0.000 0.000
                  CHANNELS 6 Xposition Yposition Zposition Zrotation Xrotation Yrotation
                  }
                }
              }
            }
            JOINT RightHandIndex1
            {
            OFFSET -8.730 0.680 2.070
            CHANNELS 6 Xposition Yposition Zposition Zrotation Xrotation Yrotation
              JOINT RightHandIndex2
              {
              OFFSET -2.670 0.000 0.000
              CHANNELS 6 Xposition Yposition Zposition Zrotation Xrotation Yrotation
                JOINT RightHandIndex3
                {
                OFFSET -2.130 0.000 0.000
                CHANNELS 6 Xposition Yposition Zposition Zrotation Xrotation Yrotation
                  JOINT RightHandIndex4
                  {
                  OFFSET -1.800 0.000 0.000
                  CHANNELS 6 Xposition Yposition Zposition Zrotation Xrotation Yrotation
                  }
                }
              }
            }
            JOINT RightHandMiddle1
            {
            OFFSET -9.220 0.670 0.550
            CHANNELS 6 Xposition Yposition Zposition Zrotation Xrotation Yrotation
              JOINT RightHandMiddle2
              {
              OFFSET -2.660 0.000 0.000
              CHANNELS 6 Xposition Yposition Zposition Zrotation Xrotation Yrotation
                JOINT RightHandMiddle3
                {
                OFFSET -2.280 0.000 0.000
                CHANNELS 6 Xposition Yposition Zposition Zrotation Xrotation Yrotation
                  JOINT RightHandMiddle4
                  {
                  OFFSET -1.500 0.000 0.000
                  CHANNELS 6 Xposition Yposition Zposition Zrotation Xrotation Yrotation
                  }
                }
              }
            }
            JOINT RightHandRing1
            {
            OFFSET -9.250 0.670 -1.130
            CHANNELS 6 Xposition Yposition Zposition Zrotation Xrotation Yrotation
              JOINT RightHandRing2
              {
              OFFSET -2.470 0.000 0.000
              CHANNELS 6 Xposition Yposition Zposition Zrotation Xrotation Yrotation
                JOINT RightHandRing3
                {
                OFFSET -2.210 0.000 0.000
                CHANNELS 6 Xposition Yposition Zposition Zrotation Xrotation Yrotation
                  JOINT RightHandRing4
                  {
                  OFFSET -1.800 0.000 0.000
                  CHANNELS 6 Xposition Yposition Zposition Zrotation Xrotation Yrotation
                  }
                }
              }
            }
            JOINT RightHandPinky1
            {
            OFFSET -9.350 0.660 -2.720
            CHANNELS 6 Xposition Yposition Zposition Zrotation Xrotation Yrotation
              JOINT RightHandPinky2
              {
              OFFSET -1.630 0.000 0.000
              CHANNELS 6 Xposition Yposition Zposition Zrotation Xrotation Yrotation
                JOINT RightHandPinky3
                {
                OFFSET -1.710 0.000 0.000
                CHANNELS 6 Xposition Yposition Zposition Zrotation Xrotation Yrotation
                  JOINT RightHandPinky4
                  {
                  OFFSET -1.800 0.000 0.000
                  CHANNELS 6 Xposition Yposition Zposition Zrotation Xrotation Yrotation
                  }
                }
              }
            }
          }
        }
      }
    }
    JOINT Neck
    {
      OFFSET -0.000 33.791 0.000
      CHANNELS 6 Xposition Yposition Zposition Zrotation Xrotation Yrotation
      JOINT Head
      {
        OFFSET -0.000 20.308 -0.000
        CHANNELS 6 Xposition Yposition Zposition Zrotation Xrotation Yrotation
        End Site
        {
          OFFSET -0.000 0.081 -0.000
        }
      }
    }
  }
}
MOTION
Frames:	5
Frame Time:	0.0333333
3.979 30.031 -275.265 -1.02882 0.688773 -2.01825 6.30591 -6.33536 1.40347 12.3317 2.84091 -0.700495 -3.81842e-06 -46.1759 -4.76837e-05 1.27569 9.19513 -0.203885 3.07336e-06 -44.0446 0 1.9781 -39.1658 2.00008 -6.48254 -6.36238 1.38474 -11.3148 -0.220285 -0.130429 2.98023e-06 -51.3002 -4.76837e-05 3.35022 8.15564 -0.475804 -4.47035e-06 -41.9125 -2.38419e-05 3.59721 -9.38794 2.32566 1.49012e-06 6.10664 -6.10662 -1.01733 -3.03941 -1.7502 -4.47035e-06 33.7908 -7.15256e-05 -25.2255 1.19528e-05 -2.41293 16.1854 1.19209e-05 -2.38419e-05 3.90429 1.49099 -24.0355 23.3221 -5.96046e-06 9.53674e-05 9.94663e-07 2.4546e-06 -63.7319 24.3981 1.19209e-05 -8.9407e-06 -10.9424 0.204832 -21.698 0.0062 0.0497 0.0339 -45 0 0 0 0.0215 0 0 -45 0 0 0.022 0 0 -45 0 0 0.017 0 0 0 0 -0.0068 0.0873 0.0207 -45 0 0 0 0.0267 0 -80 0 0 0 0.0213 0 -90 0 0 0 0.018 0 0 0 0 -0.0067 0.0922 0.0055 -45 0 0 0 0.0266 0 -80 0 0 0 0.0228 0 -90 0 0 0 0.015 0 0 0 0 -0.0067 0.0925 -0.0113 -45 0 0 0 0.0247 0 -80 0 0 0 0.0221 0 -90 0 0 0 0.018 0 0 0 0 -0.0066 0.0935 -0.0272 -45 0 0 0 0.0163 0 -80 0 0 0 0.0171 0 -90 0 0 0 0.018 0 0 0 0 -4.47035e-06 33.7908 -7.15256e-05 24.695 -2.56132e-06 2.52492 -15.4678 -1.19209e-05 -2.38419e-05 -19.4134 -48.4961 8.1599 -23.8181 0 0 1.41768e-05 3.4151e-06 67.7068 -25.2388 -2.38419e-05 0 -21.2489 -0.000631899 10.8785 -0.0062 0.0497 0.0339 0 0 0 0 0.0215 0 0 0 0 0 0.022 0 0 0 0 0 0.017 0 0 0 0 0.0068 0.0873 0.0207 0 0 0 0 0.0267 0 0 0 0 0 0.0213 0 0 0 0 0 0.018 0 0 0 0 0.0067 0.0922 0.0055 0 0 0 0 0.0266 0 0 0 0 0 0.0228 0 0 0 0 0 0.015 0 0 0 0 0.0067 0.0925 -0.0113 0 0 0 0 0.0247 0 0 0 0 0 0.0221 0 0 0 0 0 0.018 0 0 0 0 0.0066 0.0935 -0.0272 0 0 0 0 0.0163 0 0 0 0 0 0.0171 0 0 0 0 0 0.018 0 0 0 0 -4.47035e-06 33.7908 -7.15256e-05 -6.87094 4.70569 0.566373 1.49012e-06 20.6036 0 9.7517e-06 -9.17807e-06 -8.53774e-07 
2.10334 30.2363 -275.183 -1.11038 0.712152 -1.5451 6.18375 -6.33517 1.38831 12.3509 3.08731 -0.647889 4.84288e-06 -47.3804 4.76837e-05 0.682409 7.89476 -0.0937361 3.39933e-06 -43.5803 0 1.24352 -40.6939 1.27006 -6.41816 -6.26084 1.39835 -10.6469 0.563181 0.148975 -2.98023e-06 -51.4922 2.38419e-05 4.22452 7.0744 -0.521214 1.49012e-06 -41.8222 0 3.21661 -6.82836 2.03632 2.98023e-06 6.13045 -6.13048 -1.34733 -3.15888 -1.24468 0 33.7908 -4.76837e-05 -24.6587 1.06722e-05 -2.7094 15.8865 5.96046e-06 7.15256e-05 3.53055 1.62992 -25.0563 24.0188 1.19209e-05 -4.76837e-05 1.54902e-05 -1.2273e-06 -63.812 24.0983 2.38419e-05 1.19209e-05 -11.6792 0.204852 -22.6458 0.0062 0.0497 0.0339 -45 0 0 0 0.0215 0 0 -45 0 0 0.022 0 0 -45 0 0 0.017 0 0 0 0 -0.0068 0.0873 0.0207 -45 0 0 0 0.0267 0 -80 0 0 0 0.0213 0 -90 0 0 0 0.018 0 0 0 0 -0.0067 0.0922 0.0055 -45 0 0 0 0.0266 0 -80 0 0 0 0.0228 0 -90 0 0 0 0.015 0 0 0 0 -0.0067 0.0925 -0.0113 -45 0 0 0 0.0247 0 -80 0 0 0 0.0221 0 -90 0 0 0 0.018 0 0 0 0 -0.0066 0.0935 -0.0272 -45 0 0 0 0.0163 0 -80 0 0 0 0.0171 0 -90 0 0 0 0.018 0 0 0 0 0 33.7908 -4.76837e-05 25.8342 -2.56132e-06 2.82181 -15.2541 1.78814e-05 2.38419e-05 -23.5507 -48.1642 5.67408 -24.0912 0 -1.19209e-05 1.01446e-06 5.12264e-06 67.5969 -25.3538 4.76837e-05 -1.78814e-05 -21.1925 -8.28279e-05 10.7984 -0.0062 0.0497 0.0339 0 0 0 0 0.0215 0 0 0 0 0 0.022 0 0 0 0 0 0.017 0 0 0 0 0.0068 0.0873 0.0207 0 0 0 0 0.0267 0 0 0 0 0 0.0213 0 0 0 0 0 0.018 0 0 0 0 0.0067 0.0922 0.0055 0 0 0 0 0.0266 0 0 0 0 0 0.0228 0 0 0 0 0 0.015 0 0 0 0 0.0067 0.0925 -0.0113 0 0 0 0 0.0247 0 0 0 0 0 0.0221 0 0 0 0 0 0.018 0 0 0 0 0.0066 0.0935 -0.0272 0 0 0 0 0.0163 0 0 0 0 0 0.0171 0 0 0 0 0 0.018 0 0 0 0 0 33.7908 -4.76837e-05 -5.73634 5.03185 0.504806 -1.04308e-05 20.8608 2.38419e-05 9.36483e-06 -8.75118e-06 -4.26887e-07 
-1.34002 30.5632 -274.962 -0.724097 0.94309 -0.205227 5.86815 -6.3074 1.40595 10.8038 3.45765 -0.968411 3.72529e-07 -48.9715 -2.38419e-05 -0.751221 5.11721 0.0670075 -1.49012e-06 -43.1329 2.38419e-05 4.00818 -36.4262 4.00665 -6.34585 -5.96268 1.36271 -9.82102 2.01659 0.0857482 -4.47035e-06 -51.8876 -2.38419e-05 5.39879 4.65072 -0.439033 4.47035e-06 -41.5023 7.15256e-05 3.16897 -10.0953 2.19009 1.11759e-06 6.18092 -6.18088 -2.61997 -3.45558 0.535022 -1.67638e-06 33.7908 0 -22.0005 1.15259e-05 -3.08199 14.8734 1.19209e-05 0 -0.337254 1.69212 -28.2686 23.4869 -1.19209e-05 -2.38419e-05 1.72591e-06 2.29452e-06 -59.9224 23.3422 -5.96046e-06 2.23517e-06 -12.8469 0.175713 -24.0427 0.0062 0.0497 0.0339 -45 0 0 0 0.0215 0 0 -45 0 0 0.022 0 0 -45 0 0 0.017 0 0 0 0 -0.0068 0.0873 0.0207 -45 0 0 0 0.0267 0 -80 0 0 0 0.0213 0 -90 0 0 0 0.018 0 0 0 0 -0.0067 0.0922 0.0055 -45 0 0 0 0.0266 0 -80 0 0 0 0.0228 0 -90 0 0 0 0.015 0 0 0 0 -0.0067 0.0925 -0.0113 -45 0 0 0 0.0247 0 -80 0 0 0 0.0221 0 -90 0 0 0 0.018 0 0 0 0 -0.0066 0.0935 -0.0272 -45 0 0 0 0.0163 0 -80 0 0 0 0.0171 0 -90 0 0 0 0.018 0 0 0 0 -1.67638e-06 33.7908 0 28.6079 -3.20165e-06 3.06112 -14.9747 2.38419e-05 -4.76837e-05 -33.6861 -47.1801 -1.33449 -24.4165 -2.38419e-05 0 1.45495e-05 8.53774e-06 66.3314 -25.575 0.000119209 0 -20.7979 0.00204326 10.5441 -0.0062 0.0497 0.0339 0 0 0 0 0.0215 0 0 0 0 0 0.022 0 0 0 0 0 0.017 0 0 0 0 0.0068 0.0873 0.0207 0 0 0 0 0.0267 0 0 0 0 0 0.0213 0 0 0 0 0 0.018 0 0 0 0 0.0067 0.0922 0.0055 0 0 0 0 0.0266 0 0 0 0 0 0.0228 0 0 0 0 0 0.015 0 0 0 0 0.0067 0.0925 -0.0113 0 0 0 0 0.0247 0 0 0 0 0 0.0221 0 0 0 0 0 0.018 0 0 0 0 0.0066 0.0935 -0.0272 0 0 0 0 0.0163 0 0 0 0 0 0.0171 0 0 0 0 0 0.018 0 0 0 0 -1.67638e-06 33.7908 0 -3.65555 5.06755 0.323331 -3.35276e-06 21.6645 0 9.85509e-06 -9.8184e-06 5.33609e-08 
-2.74622 30.873 -274.909 -1.02947 0.979375 0.479042 5.94473 -6.34081 1.43549 10.2463 3.53292 -1.28053 -2.23517e-06 -49.7512 7.15256e-05 -1.08625 4.78326 0.0905898 1.86265e-06 -42.7288 0 5.66317 -33.6394 5.44664 -6.32025 -5.9424 1.32568 -8.67962 2.56252 -0.209531 7.45058e-07 -52.2166 2.38419e-05 5.32703 3.82563 -0.356444 -4.47035e-06 -41.3333 -4.76837e-05 3.31299 -13.4026 2.41303 2.79397e-07 6.18137 -6.18131 -2.20489 -3.36744 0.497399 -3.70201e-06 33.7908 2.38419e-05 -21.4744 1.15259e-05 -2.53991 15.1361 -5.96046e-06 -9.53674e-05 -0.879566 2.73763 -29.1546 22.5901 5.96046e-06 2.38419e-05 1.15749e-06 9.33814e-07 -60.9177 23.9594 -5.96046e-06 4.47035e-06 -12.7205 0.142425 -23.8848 0.0062 0.0497 0.0339 -45 0 0 0 0.0215 0 0 -45 0 0 0.022 0 0 -45 0 0 0.017 0 0 0 0 -0.0068 0.0873 0.0207 -45 0 0 0 0.0267 0 -80 0 0 0 0.0213 0 -90 0 0 0 0.018 0 0 0 0 -0.0067 0.0922 0.0055 -45 0 0 0 0.0266 0 -80 0 0 0 0.0228 0 -90 0 0 0 0.015 0 0 0 0 -0.0067 0.0925 -0.0113 -45 0 0 0 0.0247 0 -80 0 0 0 0.0221 0 -90 0 0 0 0.018 0 0 0 0 -0.0066 0.0935 -0.0272 -45 0 0 0 0.0163 0 -80 0 0 0 0.0171 0 -90 0 0 0 0.018 0 0 0 0 -3.70201e-06 33.7908 2.38419e-05 27.1934 -2.66804e-06 2.53091 -15.1898 1.19209e-05 -0.000119209 -33.0369 -47.2424 -2.65909 -23.9599 -9.53674e-05 1.19209e-05 -4.887e-06 -1.70755e-06 67.9826 -25.5921 0 -1.78814e-05 -20.5208 0.00462013 10.3437 -0.0062 0.0497 0.0339 0 0 0 0 0.0215 0 0 0 0 0 0.022 0 0 0 0 0 0.017 0 0 0 0 0.0068 0.0873 0.0207 0 0 0 0 0.0267 0 0 0 0 0 0.0213 0 0 0 0 0 0.018 0 0 0 0 0.0067 0.0922 0.0055 0 0 0 0 0.0266 0 0 0 0 0 0.0228 0 0 0 0 0 0.015 0 0 0 0 0.0067 0.0925 -0.0113 0 0 0 0 0.0247 0 0 0 0 0 0.0221 0 0 0 0 0 0.018 0 0 0 0 0.0066 0.0935 -0.0272 0 0 0 0 0.0163 0 0 0 0 0 0.0171 0 0 0 0 0 0.018 0 0 0 0 -3.70201e-06 33.7908 2.38419e-05 -4.91379 4.70965 0.404439 -2.6077e-06 21.7563 -2.38419e-05 1.02686e-05 -9.39151e-06 2.13443e-07 
-2.74622 30.873 -274.909 -1.02947 0.979375 0.479042 5.94473 -6.34081 1.43549 10.2463 3.53292 -1.28053 -2.23517e-06 -49.7512 7.15256e-05 -1.08625 4.78326 0.0905898 1.86265e-06 -42.7288 0 5.66317 -33.6394 5.44664 -6.32025 -5.9424 1.32568 -8.67962 2.56252 -0.209531 7.45058e-07 -52.2166 2.38419e-05 5.32703 3.82563 -0.356444 -4.47035e-06 -41.3333 -4.76837e-05 3.31299 -13.4026 2.41303 2.79397e-07 6.18137 -6.18131 -2.20489 -3.36744 0.497399 -3.70201e-06 33.7908 2.38419e-05 -21.4744 1.15259e-05 -2.53991 15.1361 -5.96046e-06 -9.53674e-05 -0.879566 2.73763 -29.1546 22.5901 5.96046e-06 2.38419e-05 1.15749e-06 9.33814e-07 -60.9177 23.9594 -5.96046e-06 4.47035e-06 -12.7205 0.142425 -23.8848 0.0062 0.0497 0.0339 -45 0 0 0 0.0215 0 0 -45 0 0 0.022 0 0 -45 0 0 0.017 0 0 0 0 -0.0068 0.0873 0.0207 -45 0 0 0 0.0267 0 -80 0 0 0 0.0213 0 -90 0 0 0 0.018 0 0 0 0 -0.0067 0.0922 0.0055 -45 0 0 0 0.0266 0 -80 0 0 0 0.0228 0 -90 0 0 0 0.015 0 0 0 0 -0.0067 0.0925 -0.0113 -45 0 0 0 0.0247 0 -80 0 0 0 0.0221 0 -90 0 0 0 0.018 0 0 0 0 -0.0066 0.0935 -0.0272 -45 0 0 0 0.0163 0 -80 0 0 0 0.0171 0 -90 0 0 0 0.018 0 0 0 0 -3.70201e-06 33.7908 2.38419e-05 27.1934 -2.66804e-06 2.53091 -15.1898 1.19209e-05 -0.000119209 -33.0369 -47.2424 -2.65909 -23.9599 -9.53674e-05 1.19209e-05 -4.887e-06 -1.70755e-06 67.9826 -25.5921 0 -1.78814e-05 -20.5208 0.00462013 10.3437 -0.0062 0.0497 0.0339 0 0 0 0 0.0215 0 0 0 0 0 0.022 0 0 0 0 0 0.017 0 0 0 0 0.0068 0.0873 0.0207 0 0 0 0 0.0267 0 0 0 0 0 0.0213 0 0 0 0 0 0.018 0 0 0 0 0.0067 0.0922 0.0055 0 0 0 0 0.0266 0 0 0 0 0 0.0228 0 0 0 0 0 0.015 0 0 0 0 0.0067 0.0925 -0.0113 0 0 0 0 0.0247 0 0 0 0 0 0.0221 0 0 0 0 0 0.018 0 0 0 0 0.0066 0.0935 -0.0272 0 0 0 0 0.0163 0 0 0 0 0 0.0171 0 0 0 0 0 0.018 0 0 0 0 -3.70201e-06 33.7908 2.38419e-05 -4.91379 4.70965 0.404439 -2.6077e-06 21.7563 -2.38419e-05 1.02686e-05 -9.39151e-06 2.13443e-07 
